# 3ds Max Wavefront OBJ Exporter v0.97b - (c)2007 guruware
# File Created: 05.11.2009 02:18:30

mtllib Cylinder Flat-Frame_1.mtl

#
# object Cylinder_Flat
#

v  5.4071 2.6616 0.0000
v  8.2938 2.6616 2.8755
v  10.0192 2.6616 0.0000
v  8.2938 2.6616 -2.8755
v  2.9355 2.6616 -2.9355
v  6.0637 2.6616 -6.0637
v  -0.0000 2.6616 0.0000
v  2.9355 2.6616 2.9355
v  6.0637 2.6616 6.0637
v  17.7629 2.6616 -7.3576
v  19.2867 2.6616 0.0000
v  19.6620 1.9962 0.0000
v  18.1086 1.9962 -7.5008
v  13.6378 2.6616 -13.6378
v  13.9032 1.9962 -13.9032
v  12.4458 2.6616 -12.4458
v  16.2103 2.6616 -6.7145
v  17.6010 2.6616 0.0000
v  7.3576 2.6616 -17.7629
v  7.5008 1.9962 -18.1086
v  -0.0000 2.6616 -19.2867
v  -0.0000 1.9962 -19.6620
v  -0.0000 2.6616 -17.6010
v  6.7145 2.6616 -16.2103
v  -7.3576 2.6616 -17.7629
v  -7.5008 1.9962 -18.1086
v  -13.6378 2.6616 -13.6378
v  -13.9032 1.9962 -13.9032
v  -12.4458 2.6616 -12.4458
v  -6.7145 2.6616 -16.2103
v  -17.7629 2.6616 -7.3576
v  -18.1086 1.9962 -7.5008
v  -19.2867 2.6616 0.0000
v  -19.6620 1.9962 0.0000
v  -17.6010 2.6616 0.0000
v  -16.2104 2.6616 -6.7145
v  -17.7629 2.6616 7.3576
v  -18.1086 1.9962 7.5008
v  -13.6378 2.6616 13.6378
v  -13.9032 1.9962 13.9032
v  -12.4458 2.6616 12.4458
v  -16.2104 2.6616 6.7145
v  -7.3576 2.6616 17.7629
v  -7.5008 1.9962 18.1086
v  -0.0000 2.6616 19.2867
v  -0.0000 1.9962 19.6620
v  -0.0000 2.6616 17.6010
v  -6.7145 2.6616 16.2103
v  7.3576 2.6616 17.7629
v  7.5008 1.9962 18.1086
v  13.6378 2.6616 13.6378
v  13.9032 1.9962 13.9032
v  12.4458 2.6616 12.4458
v  6.7145 2.6616 16.2103
v  17.7629 2.6616 7.3576
v  18.1086 1.9962 7.5008
v  16.2103 2.6616 6.7145
v  -0.0000 2.6616 -5.4071
v  2.8755 2.6616 -8.2938
v  -2.8755 2.6616 -8.2938
v  -0.0000 2.6616 -10.0192
v  -6.0637 2.6616 -6.0637
v  -2.9355 2.6616 -2.9355
v  -5.4071 2.6616 0.0000
v  -8.2938 2.6616 -2.8755
v  -8.2938 2.6616 2.8755
v  -10.0192 2.6616 0.0000
v  -6.0637 2.6616 6.0637
v  -2.9355 2.6616 2.9355
v  -0.0000 2.6616 5.4071
v  -2.8755 2.6616 8.2938
v  -0.0000 2.6616 10.0192
v  2.8755 2.6616 8.2938
v  -18.2238 0.0000 7.5485
v  -13.9916 0.0000 13.9916
v  -19.7871 0.0000 0.0000
v  -19.6620 -1.9962 0.0000
v  -18.1086 -1.9962 7.5008
v  -13.9032 -1.9962 13.9032
v  12.4744 2.6616 -5.1671
v  9.5775 2.6616 -9.5775
v  13.5446 2.6616 0.0000
v  5.1671 2.6616 -12.4744
v  -0.0000 2.6616 -13.5446
v  -5.1671 2.6616 -12.4744
v  -9.5775 2.6616 -9.5775
v  -12.4744 2.6616 -5.1671
v  -13.5446 2.6616 0.0000
v  -12.4744 2.6616 5.1671
v  -9.5775 2.6616 9.5775
v  -5.1671 2.6616 12.4744
v  -0.0000 2.6616 13.5446
v  5.1671 2.6616 12.4744
v  9.5775 2.6616 9.5775
v  12.4744 2.6616 5.1671
v  5.4071 -2.6616 0.0000
v  8.2938 -2.6616 -2.8755
v  10.0192 -2.6616 0.0000
v  8.2938 -2.6616 2.8755
v  2.9355 -2.6616 2.9355
v  6.0637 -2.6616 6.0637
v  -0.0000 -2.6616 0.0000
v  2.9355 -2.6616 -2.9355
v  6.0637 -2.6616 -6.0637
v  17.7629 -2.6616 -7.3576
v  18.1086 -1.9962 -7.5008
v  19.6620 -1.9962 0.0000
v  19.2867 -2.6616 0.0000
v  16.2103 -2.6616 -6.7145
v  17.6010 -2.6616 0.0000
v  12.4458 -2.6616 -12.4458
v  13.6378 -2.6616 -13.6378
v  13.9032 -1.9962 -13.9032
v  7.3576 -2.6616 -17.7629
v  7.5008 -1.9962 -18.1086
v  6.7145 -2.6616 -16.2103
v  -0.0000 -2.6616 -17.6010
v  -0.0000 -2.6616 -19.2867
v  -0.0000 -1.9962 -19.6620
v  -7.3576 -2.6616 -17.7629
v  -7.5008 -1.9962 -18.1086
v  -6.7145 -2.6616 -16.2103
v  -12.4458 -2.6616 -12.4458
v  -13.6378 -2.6616 -13.6378
v  -13.9032 -1.9962 -13.9032
v  -17.7629 -2.6616 -7.3576
v  -18.1086 -1.9962 -7.5008
v  -16.2104 -2.6616 -6.7145
v  -17.6010 -2.6616 0.0000
v  -19.2867 -2.6616 0.0000
v  -17.7629 -2.6616 7.3576
v  -16.2104 -2.6616 6.7145
v  -12.4458 -2.6616 12.4458
v  -13.6378 -2.6616 13.6378
v  -7.3576 -2.6616 17.7629
v  -7.5008 -1.9962 18.1086
v  -6.7145 -2.6616 16.2103
v  -0.0000 -2.6616 17.6010
v  -0.0000 -2.6616 19.2867
v  -0.0000 -1.9962 19.6620
v  7.3576 -2.6616 17.7629
v  7.5008 -1.9962 18.1086
v  6.7145 -2.6616 16.2103
v  12.4458 -2.6616 12.4458
v  13.6378 -2.6616 13.6378
v  13.9032 -1.9962 13.9032
v  17.7629 -2.6616 7.3576
v  18.1086 -1.9962 7.5008
v  16.2103 -2.6616 6.7145
v  -0.0000 -2.6616 -5.4071
v  2.8755 -2.6616 -8.2938
v  -2.9355 -2.6616 -2.9355
v  -6.0637 -2.6616 -6.0637
v  -2.8755 -2.6616 -8.2938
v  -0.0000 -2.6616 -10.0192
v  -5.4071 -2.6616 0.0000
v  -8.2938 -2.6616 -2.8755
v  -2.9355 -2.6616 2.9355
v  -6.0637 -2.6616 6.0637
v  -8.2938 -2.6616 2.8755
v  -10.0192 -2.6616 0.0000
v  -0.0000 -2.6616 5.4071
v  2.8755 -2.6616 8.2938
v  -0.0000 -2.6616 10.0192
v  -2.8755 -2.6616 8.2938
v  18.2238 0.0000 -7.5485
v  13.9916 0.0000 -13.9916
v  19.7871 0.0000 0.0000
v  7.5485 0.0000 -18.2238
v  -0.0000 0.0000 -19.7871
v  -7.5485 0.0000 -18.2238
v  -13.9916 0.0000 -13.9916
v  -18.2238 0.0000 -7.5485
v  -7.5485 0.0000 18.2238
v  -0.0000 0.0000 19.7871
v  7.5485 0.0000 18.2238
v  13.9916 0.0000 13.9916
v  18.2238 0.0000 7.5485
v  12.4744 -2.6616 -5.1671
v  9.5775 -2.6616 -9.5775
v  13.5446 -2.6616 0.0000
v  5.1671 -2.6616 -12.4744
v  -0.0000 -2.6616 -13.5446
v  -5.1671 -2.6616 -12.4744
v  -9.5775 -2.6616 -9.5775
v  -12.4744 -2.6616 -5.1671
v  -13.5446 -2.6616 0.0000
v  -12.4744 -2.6616 5.1671
v  -9.5775 -2.6616 9.5775
v  -5.1671 -2.6616 12.4744
v  -0.0000 -2.6616 13.5446
v  5.1671 -2.6616 12.4744
v  9.5775 -2.6616 9.5775
v  12.4744 -2.6616 5.1671
# 194 vertices

vn -0.0000 1.0000 -0.0000
vn -0.0000 1.0000 0.0000
vn 0.0000 1.0000 -0.0000
vn 0.0000 1.0000 0.0000
vn 0.5057 0.8369 -0.2095
vn 0.5500 0.8351 0.0000
vn 0.9610 0.2765 0.0000
vn 0.8879 0.2764 -0.3678
vn 0.3889 0.8351 -0.3889
vn 0.6795 0.2765 -0.6795
vn 0.2095 0.8369 -0.5057
vn 0.3678 0.2764 -0.8879
vn 0.0000 0.8351 -0.5500
vn 0.0000 0.2765 -0.9610
vn -0.2095 0.8369 -0.5057
vn -0.3678 0.2764 -0.8879
vn -0.3889 0.8351 -0.3889
vn -0.6795 0.2765 -0.6795
vn -0.5057 0.8369 -0.2095
vn -0.8879 0.2764 -0.3678
vn -0.5500 0.8351 -0.0000
vn -0.9610 0.2765 0.0000
vn -0.5057 0.8369 0.2095
vn -0.8879 0.2764 0.3678
vn -0.3889 0.8351 0.3889
vn -0.6795 0.2765 0.6795
vn -0.2095 0.8369 0.5057
vn -0.3678 0.2764 0.8879
vn -0.0000 0.8351 0.5500
vn 0.0000 0.2765 0.9610
vn 0.2095 0.8369 0.5057
vn 0.3678 0.2764 0.8879
vn 0.3889 0.8351 0.3889
vn 0.6795 0.2765 0.6795
vn 0.5057 0.8369 0.2095
vn 0.8879 0.2764 0.3678
vn -0.9239 0.0000 0.3827
vn -0.7071 -0.0000 0.7071
vn -1.0000 0.0000 0.0000
vn -0.9610 -0.2765 0.0000
vn -0.8879 -0.2764 0.3678
vn -0.6795 -0.2765 0.6795
vn 0.0000 -1.0000 0.0000
vn -0.0000 -1.0000 -0.0000
vn 0.0000 -1.0000 -0.0000
vn -0.0000 -1.0000 0.0000
vn 0.5057 -0.8369 -0.2095
vn 0.8879 -0.2764 -0.3678
vn 0.9610 -0.2765 0.0000
vn 0.5500 -0.8351 0.0000
vn 0.3889 -0.8351 -0.3889
vn 0.6795 -0.2765 -0.6795
vn 0.2095 -0.8369 -0.5057
vn 0.3678 -0.2764 -0.8879
vn -0.0000 -0.8351 -0.5500
vn -0.0000 -0.2765 -0.9610
vn -0.2095 -0.8369 -0.5057
vn -0.3678 -0.2764 -0.8879
vn -0.3889 -0.8351 -0.3889
vn -0.6795 -0.2765 -0.6795
vn -0.5057 -0.8369 -0.2095
vn -0.8879 -0.2764 -0.3678
vn -0.5500 -0.8351 0.0000
vn -0.5057 -0.8369 0.2095
vn -0.3889 -0.8351 0.3889
vn -0.2095 -0.8369 0.5057
vn -0.3678 -0.2764 0.8879
vn 0.0000 -0.8351 0.5500
vn 0.0000 -0.2765 0.9610
vn 0.2095 -0.8369 0.5057
vn 0.3678 -0.2764 0.8879
vn 0.3889 -0.8351 0.3889
vn 0.6795 -0.2765 0.6795
vn 0.5057 -0.8369 0.2095
vn 0.8879 -0.2764 0.3678
vn 0.9239 0.0000 -0.3827
vn 0.7071 0.0000 -0.7071
vn 1.0000 0.0000 0.0000
vn 0.3827 0.0000 -0.9239
vn -0.0000 0.0000 -1.0000
vn -0.3827 -0.0000 -0.9239
vn -0.7071 0.0000 -0.7071
vn -0.9239 0.0000 -0.3827
vn -0.3827 0.0000 0.9239
vn 0.0000 0.0000 1.0000
vn 0.3827 0.0000 0.9239
vn 0.7071 0.0000 0.7071
vn 0.9239 0.0000 0.3827
# 88 vertex normals

vt 0.5000 0.8018 0.2500
vt 0.6338 0.9039 0.3356
vt 0.5507 0.9366 0.4021
vt 0.4232 0.9039 0.3356
vt 0.3362 0.6638 0.2500
vt 0.2935 0.8064 0.3356
vt 0.5000 0.5000 0.2500
vt 0.6638 0.6638 0.2500
vt 0.7636 0.8064 0.3356
vt 0.7912 0.9968 0.9673
vt 0.7391 0.9984 0.9673
vt 0.7473 0.9996 0.9918
vt 0.8072 0.9992 0.9918
vt 0.8444 0.9925 0.9673
vt 0.8673 0.9981 0.9918
vt 0.7412 0.9672 0.8572
vt 0.7194 0.9861 0.8572
vt 0.7024 0.9930 0.8572
vt 0.8998 0.9859 0.9673
vt 0.9281 0.9965 0.9918
vt 0.9564 0.9782 0.9673
vt 1.0000 1.0000 1.0000
vt 0.9129 0.9564 0.9346
vt 0.7730 0.9385 0.8572
vt 0.0630 0.9705 0.9673
vt 0.0000 0.9782 0.9673
vt 0.0000 1.0000 1.0000
vt 0.0626 0.9926 0.9918
vt 0.1271 0.9639 0.9673
vt 0.1255 0.9910 0.9918
vt 0.1340 0.8424 0.8572
vt 0.0645 0.8712 0.8572
vt 0.0000 0.9564 0.9346
vt 0.1934 0.9596 0.9673
vt 0.1890 0.9899 0.9918
vt 0.2609 0.9580 0.9673
vt 0.2527 0.9895 0.9918
vt 0.2976 0.8166 0.8572
vt 0.2133 0.8236 0.8572
vt 0.3284 0.9596 0.9673
vt 0.3165 0.9899 0.9918
vt 0.3947 0.9639 0.9673
vt 0.3799 0.9910 0.9918
vt 0.4612 0.8424 0.8572
vt 0.3818 0.8236 0.8572
vt 0.4588 0.9705 0.9673
vt 0.4428 0.9926 0.9918
vt 0.5202 0.9782 0.9673
vt 0.5050 0.9946 0.9918
vt 0.5882 0.9048 0.8572
vt 0.5306 0.8712 0.8572
vt 0.5784 0.9859 0.9673
vt 0.5665 0.9965 0.9918
vt 0.6338 0.9925 0.9673
vt 0.6272 0.9981 0.9918
vt 0.6636 0.9672 0.8572
vt 0.6318 0.9385 0.8572
vt 0.6870 0.9968 0.9673
vt 0.6874 0.9992 0.9918
vt 0.6855 0.9861 0.8572
vt 0.1982 0.5000 0.2500
vt 0.2031 0.6695 0.3356
vt 0.1032 0.4446 0.3356
vt 0.1648 0.6014 0.4021
vt 0.2079 0.3077 0.3356
vt 0.3362 0.3362 0.2500
vt 0.5000 0.1982 0.2500
vt 0.3519 0.2102 0.3356
vt 0.5910 0.2102 0.3356
vt 0.4493 0.2663 0.4021
vt 0.7351 0.3077 0.3356
vt 0.6638 0.3362 0.2500
vt 0.8018 0.5000 0.2500
vt 0.8397 0.4446 0.3356
vt 0.8352 0.6014 0.4021
vt 0.8540 0.6695 0.3356
vt 0.3125 1.0000 1.0000
vt 0.3750 1.0000 1.0000
vt 0.2500 1.0000 1.0000
vt 0.5465 0.9602 0.5923
vt 0.4930 0.9063 0.5923
vt 0.6141 0.9801 0.5923
vt 0.4677 0.8243 0.5923
vt 0.4564 0.7282 0.5923
vt 0.0683 0.6321 0.5923
vt 0.1507 0.5501 0.5923
vt 0.0000 0.7282 0.5923
vt 0.2613 0.4962 0.5923
vt 0.3859 0.4763 0.5923
vt 0.5105 0.4962 0.5923
vt 0.6211 0.5501 0.5923
vt 0.7035 0.6321 0.5923
vt 0.7519 0.7282 0.5923
vt 0.7605 0.8243 0.5923
vt 0.7352 0.9063 0.5923
vt 0.6817 0.9602 0.5923
vt 0.8125 1.0000 1.0000
vt 0.8750 1.0000 1.0000
vt 0.7500 1.0000 1.0000
vt 0.9375 1.0000 1.0000
vt 0.0625 1.0000 1.0000
vt 0.1250 1.0000 1.0000
vt 0.1875 1.0000 1.0000
vt 0.4375 1.0000 1.0000
vt 0.5000 1.0000 1.0000
vt 0.5625 1.0000 1.0000
vt 0.6250 1.0000 1.0000
vt 0.6875 1.0000 1.0000
# 108 texture coords

g Cylinder_Flat
usemtl 004_default_green
s 2
f 1/1/1 2/2/2 3/3/3 4/4/1 
f 5/5/1 1/1/1 4/4/1 6/6/1 
f 1/1/1 5/5/1 7/7/4 8/8/1 
f 2/2/2 1/1/1 8/8/1 9/9/3 
f 10/10/5 11/11/6 12/12/7 13/13/8 
f 14/14/9 10/10/5 13/13/8 15/15/10 
f 10/10/5 14/14/9 16/16/2 17/17/1 
f 11/11/6 10/10/5 17/17/1 18/18/2 
f 19/19/11 14/14/9 15/15/10 20/20/12 
f 21/21/13 19/19/11 20/20/12 22/22/14 
f 19/19/11 21/21/13 23/23/4 24/24/1 
f 14/14/9 19/19/11 24/24/1 16/16/2 
f 25/25/15 21/26/13 22/27/14 26/28/16 
f 27/29/17 25/25/15 26/28/16 28/30/18 
f 25/25/15 27/29/17 29/31/4 30/32/2 
f 21/26/13 25/25/15 30/32/2 23/33/4 
f 31/34/19 27/29/17 28/30/18 32/35/20 
f 33/36/21 31/34/19 32/35/20 34/37/22 
f 31/34/19 33/36/21 35/38/3 36/39/2 
f 27/29/17 31/34/19 36/39/2 29/31/4 
f 37/40/23 33/36/21 34/37/22 38/41/24 
f 39/42/25 37/40/23 38/41/24 40/43/26 
f 37/40/23 39/42/25 41/44/3 42/45/4 
f 33/36/21 37/40/23 42/45/4 35/38/3 
f 43/46/27 39/42/25 40/43/26 44/47/28 
f 45/48/29 43/46/27 44/47/28 46/49/30 
f 43/46/27 45/48/29 47/50/1 48/51/4 
f 39/42/25 43/46/27 48/51/4 41/44/3 
f 49/52/31 45/48/29 46/49/30 50/53/32 
f 51/54/33 49/52/31 50/53/32 52/55/34 
f 49/52/31 51/54/33 53/56/1 54/57/3 
f 45/48/29 49/52/31 54/57/3 47/50/1 
f 55/58/35 51/54/33 52/55/34 56/59/36 
f 11/11/6 55/58/35 56/59/36 12/12/7 
f 55/58/35 11/11/6 18/18/2 57/60/3 
f 51/54/33 55/58/35 57/60/3 53/56/1 
f 58/61/3 5/5/1 6/6/1 59/62/4 
f 60/63/2 58/61/3 59/62/4 61/64/3 
f 58/61/3 60/63/2 62/65/2 63/66/1 
f 5/5/1 58/61/3 63/66/1 7/7/4 
f 64/67/1 63/66/1 62/65/2 65/68/3 
f 66/69/4 64/67/1 65/68/3 67/70/3 
f 64/67/1 66/69/4 68/71/4 69/72/1 
f 63/66/1 64/67/1 69/72/1 7/7/4 
f 70/73/3 8/8/1 7/7/4 69/72/1 
f 71/74/1 70/73/3 69/72/1 68/71/4 
f 70/73/3 71/74/1 72/75/3 73/76/3 
f 8/8/1 70/73/3 73/76/3 9/9/3 
f 74/77/37 75/78/38 40/43/26 38/41/24 
f 76/79/39 74/77/37 38/41/24 34/37/22 
f 74/77/37 76/79/39 77/37/40 78/41/41 
f 75/78/38 74/77/37 78/41/41 79/43/42 
f 80/80/3 17/17/1 16/16/2 81/81/3 
f 4/4/1 80/80/3 81/81/3 6/6/1 
f 80/80/3 4/4/1 3/3/3 82/82/4 
f 17/17/1 80/80/3 82/82/4 18/18/2 
f 83/83/2 24/24/1 23/23/4 84/84/3 
f 59/62/4 83/83/2 84/84/3 61/64/3 
f 83/83/2 59/62/4 6/6/1 81/81/3 
f 24/24/1 83/83/2 81/81/3 16/16/2 
f 85/85/1 30/32/2 29/31/4 86/86/1 
f 60/63/2 85/85/1 86/86/1 62/65/2 
f 85/85/1 60/63/2 61/64/3 84/87/3 
f 30/32/2 85/85/1 84/87/3 23/33/4 
f 87/88/4 36/39/2 35/38/3 88/89/1 
f 65/68/3 87/88/4 88/89/1 67/70/3 
f 87/88/4 65/68/3 62/65/2 86/86/1 
f 36/39/2 87/88/4 86/86/1 29/31/4 
f 89/90/2 42/45/4 41/44/3 90/91/2 
f 66/69/4 89/90/2 90/91/2 68/71/4 
f 89/90/2 66/69/4 67/70/3 88/89/1 
f 42/45/4 89/90/2 88/89/1 35/38/3 
f 91/92/3 48/51/4 47/50/1 92/93/2 
f 71/74/1 91/92/3 92/93/2 72/75/3 
f 91/92/3 71/74/1 68/71/4 90/91/2 
f 48/51/4 91/92/3 90/91/2 41/44/3 
f 93/94/4 54/57/3 53/56/1 94/95/4 
f 73/76/3 93/94/4 94/95/4 9/9/3 
f 93/94/4 73/76/3 72/75/3 92/93/2 
f 54/57/3 93/94/4 92/93/2 47/50/1 
f 95/96/1 57/60/3 18/18/2 82/82/4 
f 2/2/2 95/96/1 82/82/4 3/3/3 
f 95/96/1 2/2/2 9/9/3 94/95/4 
f 57/60/3 95/96/1 94/95/4 53/56/1 
f 96/1/43 97/4/43 98/3/44 99/2/45 
f 100/8/43 96/1/43 99/2/45 101/9/46 
f 96/1/43 100/8/43 102/7/44 103/5/43 
f 97/4/43 96/1/43 103/5/43 104/6/43 
f 105/10/47 106/13/48 107/12/49 108/11/50 
f 109/17/43 105/10/47 108/11/50 110/18/45 
f 105/10/47 109/17/43 111/16/45 112/14/51 
f 106/13/48 105/10/47 112/14/51 113/15/52 
f 114/19/53 115/20/54 113/15/52 112/14/51 
f 116/24/43 114/19/53 112/14/51 111/16/45 
f 114/19/53 116/24/43 117/23/44 118/21/55 
f 115/20/54 114/19/53 118/21/55 119/22/56 
f 120/25/57 121/28/58 119/27/56 118/26/55 
f 122/32/45 120/25/57 118/26/55 117/33/44 
f 120/25/57 122/32/45 123/31/44 124/29/59 
f 121/28/58 120/25/57 124/29/59 125/30/60 
f 126/34/61 127/35/62 125/30/60 124/29/59 
f 128/39/45 126/34/61 124/29/59 123/31/44 
f 126/34/61 128/39/45 129/38/46 130/36/63 
f 127/35/62 126/34/61 130/36/63 77/37/40 
f 131/40/64 78/41/41 77/37/40 130/36/63 
f 132/45/44 131/40/64 130/36/63 129/38/46 
f 131/40/64 132/45/44 133/44/46 134/42/65 
f 78/41/41 131/40/64 134/42/65 79/43/42 
f 135/46/66 136/47/67 79/43/42 134/42/65 
f 137/51/44 135/46/66 134/42/65 133/44/46 
f 135/46/66 137/51/44 138/50/43 139/48/68 
f 136/47/67 135/46/66 139/48/68 140/49/69 
f 141/52/70 142/53/71 140/49/69 139/48/68 
f 143/57/46 141/52/70 139/48/68 138/50/43 
f 141/52/70 143/57/46 144/56/43 145/54/72 
f 142/53/71 141/52/70 145/54/72 146/55/73 
f 147/58/74 148/59/75 146/55/73 145/54/72 
f 149/60/46 147/58/74 145/54/72 144/56/43 
f 147/58/74 149/60/46 110/18/45 108/11/50 
f 148/59/75 147/58/74 108/11/50 107/12/49 
f 150/61/43 151/62/44 104/6/43 103/5/43 
f 152/66/43 150/61/43 103/5/43 102/7/44 
f 150/61/43 152/66/43 153/65/45 154/63/45 
f 151/62/44 150/61/43 154/63/45 155/64/44 
f 156/67/43 157/68/46 153/65/45 152/66/43 
f 158/72/43 156/67/43 152/66/43 102/7/44 
f 156/67/43 158/72/43 159/71/44 160/69/44 
f 157/68/46 156/67/43 160/69/44 161/70/46 
f 162/73/46 158/72/43 102/7/44 100/8/43 
f 163/76/46 162/73/46 100/8/43 101/9/46 
f 162/73/46 163/76/46 164/75/45 165/74/43 
f 158/72/43 162/73/46 165/74/43 159/71/44 
f 166/97/76 167/98/77 15/15/10 13/13/8 
f 168/99/78 166/97/76 13/13/8 12/12/7 
f 166/97/76 168/99/78 107/12/49 106/13/48 
f 167/98/77 166/97/76 106/13/48 113/15/52 
f 169/100/79 170/22/80 22/22/14 20/20/12 
f 167/98/77 169/100/79 20/20/12 15/15/10 
f 169/100/79 167/98/77 113/15/52 115/20/54 
f 170/22/80 169/100/79 115/20/54 119/22/56 
f 171/101/81 172/102/82 28/30/18 26/28/16 
f 170/27/80 171/101/81 26/28/16 22/27/14 
f 171/101/81 170/27/80 119/27/56 121/28/58 
f 172/102/82 171/101/81 121/28/58 125/30/60 
f 173/103/83 76/79/39 34/37/22 32/35/20 
f 172/102/82 173/103/83 32/35/20 28/30/18 
f 173/103/83 172/102/82 125/30/60 127/35/62 
f 76/79/39 173/103/83 127/35/62 77/37/40 
f 174/104/84 175/105/85 46/49/30 44/47/28 
f 75/78/38 174/104/84 44/47/28 40/43/26 
f 174/104/84 75/78/38 79/43/42 136/47/67 
f 175/105/85 174/104/84 136/47/67 140/49/69 
f 176/106/86 177/107/87 52/55/34 50/53/32 
f 175/105/85 176/106/86 50/53/32 46/49/30 
f 176/106/86 175/105/85 140/49/69 142/53/71 
f 177/107/87 176/106/86 142/53/71 146/55/73 
f 178/108/88 168/99/78 12/12/7 56/59/36 
f 177/107/87 178/108/88 56/59/36 52/55/34 
f 178/108/88 177/107/87 146/55/73 148/59/75 
f 168/99/78 178/108/88 148/59/75 107/12/49 
f 179/80/46 180/81/46 111/16/45 109/17/43 
f 181/82/44 179/80/46 109/17/43 110/18/45 
f 179/80/46 181/82/44 98/3/44 97/4/43 
f 180/81/46 179/80/46 97/4/43 104/6/43 
f 182/83/45 183/84/46 117/23/44 116/24/43 
f 180/81/46 182/83/45 116/24/43 111/16/45 
f 182/83/45 180/81/46 104/6/43 151/62/44 
f 183/84/46 182/83/45 151/62/44 155/64/44 
f 184/85/43 185/86/43 123/31/44 122/32/45 
f 183/87/46 184/85/43 122/32/45 117/33/44 
f 184/85/43 183/87/46 155/64/44 154/63/45 
f 185/86/43 184/85/43 154/63/45 153/65/45 
f 186/88/44 187/89/43 129/38/46 128/39/45 
f 185/86/43 186/88/44 128/39/45 123/31/44 
f 186/88/44 185/86/43 153/65/45 157/68/46 
f 187/89/43 186/88/44 157/68/46 161/70/46 
f 188/90/45 189/91/45 133/44/46 132/45/44 
f 187/89/43 188/90/45 132/45/44 129/38/46 
f 188/90/45 187/89/43 161/70/46 160/69/44 
f 189/91/45 188/90/45 160/69/44 159/71/44 
f 190/92/46 191/93/45 138/50/43 137/51/44 
f 189/91/45 190/92/46 137/51/44 133/44/46 
f 190/92/46 189/91/45 159/71/44 165/74/43 
f 191/93/45 190/92/46 165/74/43 164/75/45 
f 192/94/44 193/95/44 144/56/43 143/57/46 
f 191/93/45 192/94/44 143/57/46 138/50/43 
f 192/94/44 191/93/45 164/75/45 163/76/46 
f 193/95/44 192/94/44 163/76/46 101/9/46 
f 194/96/43 181/82/44 110/18/45 149/60/46 
f 193/95/44 194/96/43 149/60/46 144/56/43 
f 194/96/43 193/95/44 101/9/46 99/2/45 
f 181/82/44 194/96/43 99/2/45 98/3/44 
# 192 polygons

